<?xml version="1.0" encoding="utf-8"?>
<!-- Generator: Adobe Illustrator 17.0.0, SVG Export Plug-In . SVG Version: 6.00 Build 0)  -->
<!DOCTYPE svg PUBLIC "-//W3C//DTD SVG 1.1//EN" "http://www.w3.org/Graphics/SVG/1.1/DTD/svg11.dtd">
<svg version="1.1" id="Ebene_1" xmlns="http://www.w3.org/2000/svg" xmlns:xlink="http://www.w3.org/1999/xlink" x="0px" y="0px" width="132.8px" height="51.1px" viewBox="0 0 132.8 51.1" enable-background="new 0 0 132.8 51.1" xml:space="preserve">
<g>
	<g>
		<path fill="#063D63" d="M63.4,50.5c0,0-1,0.6-3,0.6c-2.6,0-5-1.6-6.2-2.4c-1.6-1.1-4.2-2.6-6.9-3.4c-5.1,0-8.4-1.4-11-4.8
			c-2.6-3.3-3.9-7.6-3.9-12.6c0-7.3,2.8-13.2,7.6-15.8c2-1.1,4.5-1.7,7-1.7c9,0,14.6,6.6,14.6,17.2c0,7.4-2.6,12.9-6.7,15.5
			c0.9,0.3,2.2,1.2,3,1.7c1.2,0.7,2.7,1.4,4.2,1.4c1.5,0,3-0.2,3-0.2L63.4,50.5z M52.9,20c-0.5-1.7-2.3-4.3-5.9-4.3
			c-2.3,0-4.3,1.2-5.3,3C40.6,20.9,40,23.9,40,28c0,5.8,1,9.5,3,11c1.1,0.8,2.4,1.2,4,1.2c4.7,0,6.7-3.6,6.7-12.2
			C53.8,24.4,53.5,21.9,52.9,20z"/>
		<path fill="#063D63" d="M77.6,44.8h-5.4l-9.1-24.5l6.7-0.8l3.6,11.2c0.5,1.7,1.3,4.4,1.6,6c0.2-1.5,0.7-3.8,1.5-6.3l3.4-10.5h6.8
			L77.6,44.8z"/>
		<path fill="#063D63" d="M106.8,41.8c-1.9,2.1-4.4,3.5-8.2,3.5c-6.8,0-11.2-5.1-11.2-12.9c0-7.8,4.5-13,11.2-13
			c3.6,0,6.3,1.2,8.5,3.7c2,2.3,2.9,5.1,2.9,9.1C109.9,36.5,109,39.4,106.8,41.8z M101.5,25.5c-0.6-0.8-1.7-1.3-2.8-1.3
			c-1.6,0-2.8,1-3.4,2.5c-0.4,1.3-0.7,3.1-0.7,5.6c0,2.9,0.3,5,0.8,6.3c0.6,1.4,2,2,3.3,2c2.8,0,4-2.5,4-8.4
			C102.8,28.8,102.4,26.6,101.5,25.5z"/>
		<path fill="#063D63" d="M130.5,43.8c-1.8,1-3.7,1.6-6.1,1.6c-6.9,0-10.9-4.8-10.9-12.9c0-5.7,2.2-9.5,5.1-11.5
			c1.7-1.1,4.1-1.9,6.2-1.9c1.7,0,3.5,0.4,4.8,1.1c0.9,0.5,1.4,0.8,2.4,1.8l-3.2,4.3c-1.3-1.2-2.7-1.9-3.9-1.9
			c-2.9,0-4.2,2.5-4.2,8.4c0,3.3,0.4,5.2,1.3,6.3c0.7,0.9,1.8,1.4,2.9,1.4c1.5,0,2.9-0.6,4.5-2l0.4-0.3l3,3.9
			C131.9,42.9,131.4,43.2,130.5,43.8z"/>
	</g>
	<path fill="#5DAB31" d="M1.7,8.5l16.6-8.3c0,0,11.3,8.3,19.1-0.2c0,0-9.1,15.1-17.9,17L1.7,8.5z"/>
	<g>
		<path fill="#063D63" d="M21.6,45.7V21.2l6.5-3.7V43L21.6,45.7z"/>
	</g>
	<polygon fill="#EC6408" points="0,12.4 17.6,21.4 17.6,45.5 0,35.4"/>
</g>
<g>
</g>
<g>
</g>
<g>
</g>
<g>
</g>
<g>
</g>
<g>
</g>
</svg>
